<mxfile host="app.diagrams.net" agent="Mozilla/5.0 (X11; Linux x86_64) AppleWebKit/537.36 (KHTML, like Gecko) Chrome/130.0.0.0 Safari/537.36" version="24.8.3">
  <diagram name="Page-1" id="lSfYvXwJJSKiwprr-NW_">
    <mxGraphModel dx="1313" dy="1472" grid="1" gridSize="10" guides="1" tooltips="1" connect="1" arrows="1" fold="1" page="1" pageScale="1" pageWidth="1169" pageHeight="827" math="0" shadow="0">
      <root>
        <mxCell id="0" />
        <mxCell id="1" parent="0" />
        <mxCell id="uk5T1yYV-4vCUlkxO84s-7" style="edgeStyle=orthogonalEdgeStyle;rounded=0;orthogonalLoop=1;jettySize=auto;html=1;exitX=0;exitY=0.5;exitDx=0;exitDy=0;entryX=1;entryY=0.5;entryDx=0;entryDy=0;endArrow=none;endFill=0;" parent="1" source="uk5T1yYV-4vCUlkxO84s-1" target="uk5T1yYV-4vCUlkxO84s-5" edge="1">
          <mxGeometry relative="1" as="geometry">
            <Array as="points">
              <mxPoint x="810" y="370" />
              <mxPoint x="550" y="370" />
              <mxPoint x="550" y="170" />
            </Array>
          </mxGeometry>
        </mxCell>
        <mxCell id="uk5T1yYV-4vCUlkxO84s-41" style="edgeStyle=orthogonalEdgeStyle;rounded=0;orthogonalLoop=1;jettySize=auto;html=1;exitX=0.5;exitY=1;exitDx=0;exitDy=0;entryX=0.5;entryY=0;entryDx=0;entryDy=0;endArrow=none;endFill=0;" parent="1" source="uk5T1yYV-4vCUlkxO84s-1" target="uk5T1yYV-4vCUlkxO84s-40" edge="1">
          <mxGeometry relative="1" as="geometry" />
        </mxCell>
        <mxCell id="uk5T1yYV-4vCUlkxO84s-1" value="Reservation" style="rounded=0;whiteSpace=wrap;html=1;" parent="1" vertex="1">
          <mxGeometry x="810" y="354" width="120" height="60" as="geometry" />
        </mxCell>
        <mxCell id="uk5T1yYV-4vCUlkxO84s-9" value="" style="edgeStyle=orthogonalEdgeStyle;rounded=0;orthogonalLoop=1;jettySize=auto;html=1;endArrow=none;endFill=0;" parent="1" source="uk5T1yYV-4vCUlkxO84s-2" target="uk5T1yYV-4vCUlkxO84s-8" edge="1">
          <mxGeometry relative="1" as="geometry" />
        </mxCell>
        <mxCell id="uk5T1yYV-4vCUlkxO84s-65" style="edgeStyle=orthogonalEdgeStyle;rounded=0;orthogonalLoop=1;jettySize=auto;html=1;exitX=0;exitY=0.5;exitDx=0;exitDy=0;entryX=1;entryY=0.5;entryDx=0;entryDy=0;endArrow=none;endFill=0;" parent="1" source="uk5T1yYV-4vCUlkxO84s-2" target="uk5T1yYV-4vCUlkxO84s-61" edge="1">
          <mxGeometry relative="1" as="geometry" />
        </mxCell>
        <mxCell id="uk5T1yYV-4vCUlkxO84s-66" style="edgeStyle=orthogonalEdgeStyle;rounded=0;orthogonalLoop=1;jettySize=auto;html=1;exitX=0.25;exitY=1;exitDx=0;exitDy=0;entryX=1;entryY=0;entryDx=0;entryDy=0;endArrow=none;endFill=0;" parent="1" source="uk5T1yYV-4vCUlkxO84s-2" target="uk5T1yYV-4vCUlkxO84s-60" edge="1">
          <mxGeometry relative="1" as="geometry" />
        </mxCell>
        <mxCell id="uk5T1yYV-4vCUlkxO84s-67" style="edgeStyle=orthogonalEdgeStyle;rounded=0;orthogonalLoop=1;jettySize=auto;html=1;exitX=0.5;exitY=1;exitDx=0;exitDy=0;entryX=0.5;entryY=0;entryDx=0;entryDy=0;endArrow=none;endFill=0;" parent="1" source="uk5T1yYV-4vCUlkxO84s-2" target="uk5T1yYV-4vCUlkxO84s-59" edge="1">
          <mxGeometry relative="1" as="geometry" />
        </mxCell>
        <mxCell id="uk5T1yYV-4vCUlkxO84s-68" style="edgeStyle=orthogonalEdgeStyle;rounded=0;orthogonalLoop=1;jettySize=auto;html=1;exitX=0.75;exitY=1;exitDx=0;exitDy=0;entryX=0.5;entryY=0;entryDx=0;entryDy=0;endArrow=none;endFill=0;" parent="1" source="uk5T1yYV-4vCUlkxO84s-2" target="uk5T1yYV-4vCUlkxO84s-64" edge="1">
          <mxGeometry relative="1" as="geometry" />
        </mxCell>
        <mxCell id="uk5T1yYV-4vCUlkxO84s-2" value="Customer" style="rounded=0;whiteSpace=wrap;html=1;" parent="1" vertex="1">
          <mxGeometry x="120" y="350" width="120" height="60" as="geometry" />
        </mxCell>
        <mxCell id="uk5T1yYV-4vCUlkxO84s-3" value="Event" style="rounded=0;whiteSpace=wrap;html=1;" parent="1" vertex="1">
          <mxGeometry x="770" y="130" width="120" height="60" as="geometry" />
        </mxCell>
        <mxCell id="uk5T1yYV-4vCUlkxO84s-6" value="" style="edgeStyle=orthogonalEdgeStyle;rounded=0;orthogonalLoop=1;jettySize=auto;html=1;endArrow=none;endFill=0;" parent="1" source="uk5T1yYV-4vCUlkxO84s-4" target="uk5T1yYV-4vCUlkxO84s-5" edge="1">
          <mxGeometry relative="1" as="geometry" />
        </mxCell>
        <mxCell id="uk5T1yYV-4vCUlkxO84s-47" value="" style="edgeStyle=orthogonalEdgeStyle;rounded=0;orthogonalLoop=1;jettySize=auto;html=1;endArrow=none;endFill=0;" parent="1" source="uk5T1yYV-4vCUlkxO84s-4" target="uk5T1yYV-4vCUlkxO84s-46" edge="1">
          <mxGeometry relative="1" as="geometry" />
        </mxCell>
        <mxCell id="uk5T1yYV-4vCUlkxO84s-54" style="edgeStyle=orthogonalEdgeStyle;rounded=0;orthogonalLoop=1;jettySize=auto;html=1;exitX=0.25;exitY=1;exitDx=0;exitDy=0;entryX=0.5;entryY=0;entryDx=0;entryDy=0;endArrow=none;endFill=0;" parent="1" source="uk5T1yYV-4vCUlkxO84s-4" target="uk5T1yYV-4vCUlkxO84s-53" edge="1">
          <mxGeometry relative="1" as="geometry">
            <Array as="points">
              <mxPoint x="150" y="220" />
              <mxPoint x="50" y="220" />
            </Array>
          </mxGeometry>
        </mxCell>
        <mxCell id="uk5T1yYV-4vCUlkxO84s-55" style="edgeStyle=orthogonalEdgeStyle;rounded=0;orthogonalLoop=1;jettySize=auto;html=1;exitX=0.5;exitY=1;exitDx=0;exitDy=0;endArrow=none;endFill=0;" parent="1" source="uk5T1yYV-4vCUlkxO84s-4" target="uk5T1yYV-4vCUlkxO84s-52" edge="1">
          <mxGeometry relative="1" as="geometry" />
        </mxCell>
        <mxCell id="uk5T1yYV-4vCUlkxO84s-56" style="edgeStyle=orthogonalEdgeStyle;rounded=0;orthogonalLoop=1;jettySize=auto;html=1;exitX=0.75;exitY=1;exitDx=0;exitDy=0;entryX=0.5;entryY=0;entryDx=0;entryDy=0;endArrow=none;endFill=0;" parent="1" source="uk5T1yYV-4vCUlkxO84s-4" target="uk5T1yYV-4vCUlkxO84s-51" edge="1">
          <mxGeometry relative="1" as="geometry">
            <Array as="points">
              <mxPoint x="210" y="230" />
              <mxPoint x="270" y="230" />
            </Array>
          </mxGeometry>
        </mxCell>
        <mxCell id="uk5T1yYV-4vCUlkxO84s-73" style="edgeStyle=orthogonalEdgeStyle;rounded=0;orthogonalLoop=1;jettySize=auto;html=1;exitX=1;exitY=0.75;exitDx=0;exitDy=0;endArrow=none;endFill=0;" parent="1" source="uk5T1yYV-4vCUlkxO84s-4" target="uk5T1yYV-4vCUlkxO84s-50" edge="1">
          <mxGeometry relative="1" as="geometry">
            <Array as="points">
              <mxPoint x="240" y="220" />
              <mxPoint x="370" y="220" />
            </Array>
          </mxGeometry>
        </mxCell>
        <mxCell id="uk5T1yYV-4vCUlkxO84s-4" value="Ticket" style="rounded=0;whiteSpace=wrap;html=1;" parent="1" vertex="1">
          <mxGeometry x="120" y="140" width="120" height="60" as="geometry" />
        </mxCell>
        <mxCell id="uk5T1yYV-4vCUlkxO84s-5" value="Contains" style="rhombus;whiteSpace=wrap;html=1;rounded=0;" parent="1" vertex="1">
          <mxGeometry x="340" y="130" width="80" height="80" as="geometry" />
        </mxCell>
        <mxCell id="uk5T1yYV-4vCUlkxO84s-11" style="edgeStyle=orthogonalEdgeStyle;rounded=0;orthogonalLoop=1;jettySize=auto;html=1;exitX=1;exitY=0.5;exitDx=0;exitDy=0;entryX=0;entryY=0.5;entryDx=0;entryDy=0;endArrow=none;endFill=0;" parent="1" source="uk5T1yYV-4vCUlkxO84s-8" target="uk5T1yYV-4vCUlkxO84s-1" edge="1">
          <mxGeometry relative="1" as="geometry">
            <Array as="points">
              <mxPoint x="810" y="380" />
            </Array>
          </mxGeometry>
        </mxCell>
        <mxCell id="uk5T1yYV-4vCUlkxO84s-8" value="Makes" style="rhombus;whiteSpace=wrap;html=1;rounded=0;" parent="1" vertex="1">
          <mxGeometry x="340" y="340" width="80" height="80" as="geometry" />
        </mxCell>
        <mxCell id="uk5T1yYV-4vCUlkxO84s-14" value="1,1" style="text;html=1;align=center;verticalAlign=middle;resizable=0;points=[];autosize=1;strokeColor=none;fillColor=none;" parent="1" vertex="1">
          <mxGeometry x="70" y="318" width="40" height="30" as="geometry" />
        </mxCell>
        <mxCell id="uk5T1yYV-4vCUlkxO84s-15" value="1,N" style="text;html=1;align=center;verticalAlign=middle;resizable=0;points=[];autosize=1;strokeColor=none;fillColor=none;" parent="1" vertex="1">
          <mxGeometry x="450" y="130" width="40" height="30" as="geometry" />
        </mxCell>
        <mxCell id="uk5T1yYV-4vCUlkxO84s-16" value="0,N" style="text;html=1;align=center;verticalAlign=middle;resizable=0;points=[];autosize=1;strokeColor=none;fillColor=none;" parent="1" vertex="1">
          <mxGeometry x="270" y="348" width="40" height="30" as="geometry" />
        </mxCell>
        <mxCell id="uk5T1yYV-4vCUlkxO84s-17" value="1,1" style="text;html=1;align=center;verticalAlign=middle;resizable=0;points=[];autosize=1;strokeColor=none;fillColor=none;" parent="1" vertex="1">
          <mxGeometry x="440" y="348" width="40" height="30" as="geometry" />
        </mxCell>
        <mxCell id="uk5T1yYV-4vCUlkxO84s-27" style="edgeStyle=orthogonalEdgeStyle;rounded=0;orthogonalLoop=1;jettySize=auto;html=1;exitX=0.5;exitY=1;exitDx=0;exitDy=0;entryX=0;entryY=0;entryDx=0;entryDy=0;endArrow=none;endFill=0;" parent="1" source="uk5T1yYV-4vCUlkxO84s-18" target="uk5T1yYV-4vCUlkxO84s-3" edge="1">
          <mxGeometry relative="1" as="geometry">
            <Array as="points">
              <mxPoint x="480" y="100" />
              <mxPoint x="770" y="100" />
            </Array>
          </mxGeometry>
        </mxCell>
        <mxCell id="uk5T1yYV-4vCUlkxO84s-18" value="eid" style="ellipse;whiteSpace=wrap;html=1;rounded=0;" parent="1" vertex="1">
          <mxGeometry x="440" y="-80" width="80" height="80" as="geometry" />
        </mxCell>
        <mxCell id="uk5T1yYV-4vCUlkxO84s-28" style="edgeStyle=orthogonalEdgeStyle;rounded=0;orthogonalLoop=1;jettySize=auto;html=1;exitX=0.5;exitY=1;exitDx=0;exitDy=0;entryX=0.25;entryY=0;entryDx=0;entryDy=0;endArrow=none;endFill=0;" parent="1" source="uk5T1yYV-4vCUlkxO84s-21" target="uk5T1yYV-4vCUlkxO84s-3" edge="1">
          <mxGeometry relative="1" as="geometry">
            <Array as="points">
              <mxPoint x="585" y="80" />
              <mxPoint x="800" y="80" />
            </Array>
          </mxGeometry>
        </mxCell>
        <mxCell id="uk5T1yYV-4vCUlkxO84s-21" value="name" style="ellipse;whiteSpace=wrap;html=1;rounded=0;" parent="1" vertex="1">
          <mxGeometry x="545" y="-80" width="80" height="80" as="geometry" />
        </mxCell>
        <mxCell id="uk5T1yYV-4vCUlkxO84s-32" style="edgeStyle=orthogonalEdgeStyle;rounded=0;orthogonalLoop=1;jettySize=auto;html=1;exitX=0.5;exitY=1;exitDx=0;exitDy=0;entryX=1;entryY=0.25;entryDx=0;entryDy=0;endArrow=none;endFill=0;" parent="1" source="uk5T1yYV-4vCUlkxO84s-23" target="uk5T1yYV-4vCUlkxO84s-3" edge="1">
          <mxGeometry relative="1" as="geometry" />
        </mxCell>
        <mxCell id="uk5T1yYV-4vCUlkxO84s-23" value="&amp;nbsp;capacity" style="ellipse;whiteSpace=wrap;html=1;aspect=fixed;" parent="1" vertex="1">
          <mxGeometry x="1040" y="-80" width="80" height="80" as="geometry" />
        </mxCell>
        <mxCell id="uk5T1yYV-4vCUlkxO84s-31" style="edgeStyle=orthogonalEdgeStyle;rounded=0;orthogonalLoop=1;jettySize=auto;html=1;exitX=0.5;exitY=1;exitDx=0;exitDy=0;entryX=1;entryY=0;entryDx=0;entryDy=0;endArrow=none;endFill=0;" parent="1" source="uk5T1yYV-4vCUlkxO84s-24" target="uk5T1yYV-4vCUlkxO84s-3" edge="1">
          <mxGeometry relative="1" as="geometry" />
        </mxCell>
        <mxCell id="uk5T1yYV-4vCUlkxO84s-24" value="date" style="ellipse;whiteSpace=wrap;html=1;aspect=fixed;" parent="1" vertex="1">
          <mxGeometry x="930" y="-80" width="80" height="80" as="geometry" />
        </mxCell>
        <mxCell id="uk5T1yYV-4vCUlkxO84s-29" style="edgeStyle=orthogonalEdgeStyle;rounded=0;orthogonalLoop=1;jettySize=auto;html=1;exitX=0.5;exitY=1;exitDx=0;exitDy=0;entryX=0.5;entryY=0;entryDx=0;entryDy=0;endArrow=none;endFill=0;" parent="1" source="uk5T1yYV-4vCUlkxO84s-25" target="uk5T1yYV-4vCUlkxO84s-3" edge="1">
          <mxGeometry relative="1" as="geometry">
            <Array as="points">
              <mxPoint x="700" y="60" />
              <mxPoint x="830" y="60" />
            </Array>
          </mxGeometry>
        </mxCell>
        <mxCell id="uk5T1yYV-4vCUlkxO84s-25" value="type" style="ellipse;whiteSpace=wrap;html=1;aspect=fixed;" parent="1" vertex="1">
          <mxGeometry x="660" y="-80" width="80" height="80" as="geometry" />
        </mxCell>
        <mxCell id="uk5T1yYV-4vCUlkxO84s-30" style="edgeStyle=orthogonalEdgeStyle;rounded=0;orthogonalLoop=1;jettySize=auto;html=1;exitX=0.5;exitY=1;exitDx=0;exitDy=0;entryX=0.75;entryY=0;entryDx=0;entryDy=0;endArrow=none;endFill=0;" parent="1" source="uk5T1yYV-4vCUlkxO84s-26" target="uk5T1yYV-4vCUlkxO84s-3" edge="1">
          <mxGeometry relative="1" as="geometry">
            <Array as="points">
              <mxPoint x="860" />
            </Array>
          </mxGeometry>
        </mxCell>
        <mxCell id="uk5T1yYV-4vCUlkxO84s-26" value="&amp;nbsp;time" style="ellipse;whiteSpace=wrap;html=1;aspect=fixed;" parent="1" vertex="1">
          <mxGeometry x="820" y="-80" width="80" height="80" as="geometry" />
        </mxCell>
        <mxCell id="uk5T1yYV-4vCUlkxO84s-42" style="edgeStyle=orthogonalEdgeStyle;rounded=0;orthogonalLoop=1;jettySize=auto;html=1;exitX=0.5;exitY=1;exitDx=0;exitDy=0;entryX=0.25;entryY=0;entryDx=0;entryDy=0;endArrow=none;endFill=0;" parent="1" source="uk5T1yYV-4vCUlkxO84s-33" target="uk5T1yYV-4vCUlkxO84s-1" edge="1">
          <mxGeometry relative="1" as="geometry" />
        </mxCell>
        <mxCell id="uk5T1yYV-4vCUlkxO84s-33" value="date" style="ellipse;whiteSpace=wrap;html=1;rounded=0;" parent="1" vertex="1">
          <mxGeometry x="670" y="220" width="80" height="80" as="geometry" />
        </mxCell>
        <mxCell id="uk5T1yYV-4vCUlkxO84s-44" style="edgeStyle=orthogonalEdgeStyle;rounded=0;orthogonalLoop=1;jettySize=auto;html=1;exitX=0.5;exitY=1;exitDx=0;exitDy=0;entryX=0.75;entryY=0;entryDx=0;entryDy=0;endArrow=none;endFill=0;" parent="1" source="uk5T1yYV-4vCUlkxO84s-35" target="uk5T1yYV-4vCUlkxO84s-1" edge="1">
          <mxGeometry relative="1" as="geometry" />
        </mxCell>
        <mxCell id="uk5T1yYV-4vCUlkxO84s-35" value="eid" style="ellipse;whiteSpace=wrap;html=1;rounded=0;" parent="1" vertex="1">
          <mxGeometry x="860" y="220" width="80" height="80" as="geometry" />
        </mxCell>
        <mxCell id="uk5T1yYV-4vCUlkxO84s-43" style="edgeStyle=orthogonalEdgeStyle;rounded=0;orthogonalLoop=1;jettySize=auto;html=1;exitX=0.5;exitY=1;exitDx=0;exitDy=0;entryX=0.5;entryY=0;entryDx=0;entryDy=0;endArrow=none;endFill=0;" parent="1" source="uk5T1yYV-4vCUlkxO84s-37" target="uk5T1yYV-4vCUlkxO84s-1" edge="1">
          <mxGeometry relative="1" as="geometry">
            <Array as="points">
              <mxPoint x="810" y="320" />
              <mxPoint x="870" y="320" />
            </Array>
          </mxGeometry>
        </mxCell>
        <mxCell id="uk5T1yYV-4vCUlkxO84s-37" value="cid" style="ellipse;whiteSpace=wrap;html=1;rounded=0;" parent="1" vertex="1">
          <mxGeometry x="770" y="220" width="80" height="80" as="geometry" />
        </mxCell>
        <mxCell id="uk5T1yYV-4vCUlkxO84s-45" style="edgeStyle=orthogonalEdgeStyle;rounded=0;orthogonalLoop=1;jettySize=auto;html=1;exitX=0.5;exitY=1;exitDx=0;exitDy=0;entryX=1;entryY=0;entryDx=0;entryDy=0;endArrow=none;endFill=0;" parent="1" source="uk5T1yYV-4vCUlkxO84s-39" target="uk5T1yYV-4vCUlkxO84s-1" edge="1">
          <mxGeometry relative="1" as="geometry" />
        </mxCell>
        <mxCell id="uk5T1yYV-4vCUlkxO84s-39" value="total_price" style="ellipse;whiteSpace=wrap;html=1;aspect=fixed;" parent="1" vertex="1">
          <mxGeometry x="980" y="220" width="80" height="80" as="geometry" />
        </mxCell>
        <mxCell id="uk5T1yYV-4vCUlkxO84s-40" value="tickets_number" style="ellipse;whiteSpace=wrap;html=1;aspect=fixed;" parent="1" vertex="1">
          <mxGeometry x="820" y="460" width="100" height="100" as="geometry" />
        </mxCell>
        <mxCell id="uk5T1yYV-4vCUlkxO84s-46" value="tid" style="ellipse;whiteSpace=wrap;html=1;rounded=0;" parent="1" vertex="1">
          <mxGeometry x="140" y="20" width="80" height="80" as="geometry" />
        </mxCell>
        <mxCell id="uk5T1yYV-4vCUlkxO84s-50" value="seat_number" style="ellipse;whiteSpace=wrap;html=1;aspect=fixed;" parent="1" vertex="1">
          <mxGeometry x="330" y="240" width="80" height="80" as="geometry" />
        </mxCell>
        <mxCell id="uk5T1yYV-4vCUlkxO84s-51" value="availability" style="ellipse;whiteSpace=wrap;html=1;aspect=fixed;" parent="1" vertex="1">
          <mxGeometry x="230" y="240" width="80" height="80" as="geometry" />
        </mxCell>
        <mxCell id="uk5T1yYV-4vCUlkxO84s-52" value="price" style="ellipse;whiteSpace=wrap;html=1;aspect=fixed;" parent="1" vertex="1">
          <mxGeometry x="140" y="240" width="80" height="80" as="geometry" />
        </mxCell>
        <mxCell id="uk5T1yYV-4vCUlkxO84s-53" value="type" style="ellipse;whiteSpace=wrap;html=1;aspect=fixed;" parent="1" vertex="1">
          <mxGeometry x="10" y="240" width="80" height="80" as="geometry" />
        </mxCell>
        <mxCell id="uk5T1yYV-4vCUlkxO84s-59" value="mail" style="ellipse;whiteSpace=wrap;html=1;aspect=fixed;" parent="1" vertex="1">
          <mxGeometry x="140" y="450" width="80" height="80" as="geometry" />
        </mxCell>
        <mxCell id="uk5T1yYV-4vCUlkxO84s-60" value="cid" style="ellipse;whiteSpace=wrap;html=1;aspect=fixed;" parent="1" vertex="1">
          <mxGeometry x="30" y="450" width="80" height="80" as="geometry" />
        </mxCell>
        <mxCell id="uk5T1yYV-4vCUlkxO84s-61" value="credit_info" style="ellipse;whiteSpace=wrap;html=1;aspect=fixed;" parent="1" vertex="1">
          <mxGeometry x="10" y="340" width="80" height="80" as="geometry" />
        </mxCell>
        <mxCell id="uk5T1yYV-4vCUlkxO84s-62" value="l_name" style="ellipse;whiteSpace=wrap;html=1;aspect=fixed;" parent="1" vertex="1">
          <mxGeometry x="320" y="580" width="80" height="80" as="geometry" />
        </mxCell>
        <mxCell id="uk5T1yYV-4vCUlkxO84s-63" value="f_name" style="ellipse;whiteSpace=wrap;html=1;aspect=fixed;" parent="1" vertex="1">
          <mxGeometry x="170" y="580" width="80" height="80" as="geometry" />
        </mxCell>
        <mxCell id="uk5T1yYV-4vCUlkxO84s-70" style="edgeStyle=orthogonalEdgeStyle;rounded=0;orthogonalLoop=1;jettySize=auto;html=1;exitX=0;exitY=1;exitDx=0;exitDy=0;entryX=0.5;entryY=0;entryDx=0;entryDy=0;endArrow=none;endFill=0;" parent="1" source="uk5T1yYV-4vCUlkxO84s-64" target="uk5T1yYV-4vCUlkxO84s-63" edge="1">
          <mxGeometry relative="1" as="geometry" />
        </mxCell>
        <mxCell id="uk5T1yYV-4vCUlkxO84s-71" style="edgeStyle=orthogonalEdgeStyle;rounded=0;orthogonalLoop=1;jettySize=auto;html=1;exitX=1;exitY=1;exitDx=0;exitDy=0;entryX=0.5;entryY=0;entryDx=0;entryDy=0;endArrow=none;endFill=0;" parent="1" source="uk5T1yYV-4vCUlkxO84s-64" target="uk5T1yYV-4vCUlkxO84s-62" edge="1">
          <mxGeometry relative="1" as="geometry" />
        </mxCell>
        <mxCell id="uk5T1yYV-4vCUlkxO84s-64" value="name" style="ellipse;whiteSpace=wrap;html=1;aspect=fixed;" parent="1" vertex="1">
          <mxGeometry x="240" y="450" width="80" height="80" as="geometry" />
        </mxCell>
        <mxCell id="biB-jp_Qq15eVGGiDJQu-1" value="1,1" style="text;html=1;align=center;verticalAlign=middle;resizable=0;points=[];autosize=1;strokeColor=none;fillColor=none;" vertex="1" parent="1">
          <mxGeometry x="200" y="100" width="40" height="30" as="geometry" />
        </mxCell>
        <mxCell id="biB-jp_Qq15eVGGiDJQu-2" value="1,1" style="text;html=1;align=center;verticalAlign=middle;resizable=0;points=[];autosize=1;strokeColor=none;fillColor=none;" vertex="1" parent="1">
          <mxGeometry x="70" y="230" width="40" height="30" as="geometry" />
        </mxCell>
        <mxCell id="biB-jp_Qq15eVGGiDJQu-3" value="1,1" style="text;html=1;align=center;verticalAlign=middle;resizable=0;points=[];autosize=1;strokeColor=none;fillColor=none;" vertex="1" parent="1">
          <mxGeometry x="390" y="220" width="40" height="30" as="geometry" />
        </mxCell>
        <mxCell id="biB-jp_Qq15eVGGiDJQu-4" value="1,1" style="text;html=1;align=center;verticalAlign=middle;resizable=0;points=[];autosize=1;strokeColor=none;fillColor=none;" vertex="1" parent="1">
          <mxGeometry x="120" y="230" width="40" height="30" as="geometry" />
        </mxCell>
        <mxCell id="biB-jp_Qq15eVGGiDJQu-5" value="1,1" style="text;html=1;align=center;verticalAlign=middle;resizable=0;points=[];autosize=1;strokeColor=none;fillColor=none;" vertex="1" parent="1">
          <mxGeometry x="300" y="430" width="40" height="30" as="geometry" />
        </mxCell>
        <mxCell id="biB-jp_Qq15eVGGiDJQu-6" value="1,1" style="text;html=1;align=center;verticalAlign=middle;resizable=0;points=[];autosize=1;strokeColor=none;fillColor=none;" vertex="1" parent="1">
          <mxGeometry x="280" y="220" width="40" height="30" as="geometry" />
        </mxCell>
        <mxCell id="biB-jp_Qq15eVGGiDJQu-7" value="1,1" style="text;html=1;align=center;verticalAlign=middle;resizable=0;points=[];autosize=1;strokeColor=none;fillColor=none;" vertex="1" parent="1">
          <mxGeometry x="160" y="550" width="40" height="30" as="geometry" />
        </mxCell>
        <mxCell id="biB-jp_Qq15eVGGiDJQu-8" value="1,1" style="text;html=1;align=center;verticalAlign=middle;resizable=0;points=[];autosize=1;strokeColor=none;fillColor=none;" vertex="1" parent="1">
          <mxGeometry x="380" y="560" width="40" height="30" as="geometry" />
        </mxCell>
        <mxCell id="biB-jp_Qq15eVGGiDJQu-9" value="1,1" style="text;html=1;align=center;verticalAlign=middle;resizable=0;points=[];autosize=1;strokeColor=none;fillColor=none;" vertex="1" parent="1">
          <mxGeometry x="100" y="440" width="40" height="30" as="geometry" />
        </mxCell>
        <mxCell id="biB-jp_Qq15eVGGiDJQu-10" value="1,1" style="text;html=1;align=center;verticalAlign=middle;resizable=0;points=[];autosize=1;strokeColor=none;fillColor=none;" vertex="1" parent="1">
          <mxGeometry x="200" y="440" width="40" height="30" as="geometry" />
        </mxCell>
        <mxCell id="biB-jp_Qq15eVGGiDJQu-11" value="1,1" style="text;html=1;align=center;verticalAlign=middle;resizable=0;points=[];autosize=1;strokeColor=none;fillColor=none;" vertex="1" parent="1">
          <mxGeometry x="730" y="15" width="40" height="30" as="geometry" />
        </mxCell>
        <mxCell id="biB-jp_Qq15eVGGiDJQu-12" value="1,1" style="text;html=1;align=center;verticalAlign=middle;resizable=0;points=[];autosize=1;strokeColor=none;fillColor=none;" vertex="1" parent="1">
          <mxGeometry x="600" y="45" width="40" height="30" as="geometry" />
        </mxCell>
        <mxCell id="biB-jp_Qq15eVGGiDJQu-13" value="1,1" style="text;html=1;align=center;verticalAlign=middle;resizable=0;points=[];autosize=1;strokeColor=none;fillColor=none;" vertex="1" parent="1">
          <mxGeometry x="490" y="60" width="40" height="30" as="geometry" />
        </mxCell>
        <mxCell id="biB-jp_Qq15eVGGiDJQu-14" value="1,1" style="text;html=1;align=center;verticalAlign=middle;resizable=0;points=[];autosize=1;strokeColor=none;fillColor=none;" vertex="1" parent="1">
          <mxGeometry x="1030" y="300" width="40" height="30" as="geometry" />
        </mxCell>
        <mxCell id="biB-jp_Qq15eVGGiDJQu-15" value="1,1" style="text;html=1;align=center;verticalAlign=middle;resizable=0;points=[];autosize=1;strokeColor=none;fillColor=none;" vertex="1" parent="1">
          <mxGeometry x="900" y="300" width="40" height="30" as="geometry" />
        </mxCell>
        <mxCell id="biB-jp_Qq15eVGGiDJQu-16" value="1,1" style="text;html=1;align=center;verticalAlign=middle;resizable=0;points=[];autosize=1;strokeColor=none;fillColor=none;" vertex="1" parent="1">
          <mxGeometry x="770" y="290" width="40" height="30" as="geometry" />
        </mxCell>
        <mxCell id="biB-jp_Qq15eVGGiDJQu-17" value="1,1" style="text;html=1;align=center;verticalAlign=middle;resizable=0;points=[];autosize=1;strokeColor=none;fillColor=none;" vertex="1" parent="1">
          <mxGeometry x="640" y="288" width="40" height="30" as="geometry" />
        </mxCell>
        <mxCell id="biB-jp_Qq15eVGGiDJQu-18" value="1,1" style="text;html=1;align=center;verticalAlign=middle;resizable=0;points=[];autosize=1;strokeColor=none;fillColor=none;" vertex="1" parent="1">
          <mxGeometry x="800" y="440" width="40" height="30" as="geometry" />
        </mxCell>
        <mxCell id="biB-jp_Qq15eVGGiDJQu-19" value="1,1" style="text;html=1;align=center;verticalAlign=middle;resizable=0;points=[];autosize=1;strokeColor=none;fillColor=none;" vertex="1" parent="1">
          <mxGeometry x="910" y="75" width="40" height="30" as="geometry" />
        </mxCell>
        <mxCell id="biB-jp_Qq15eVGGiDJQu-20" value="1,1" style="text;html=1;align=center;verticalAlign=middle;resizable=0;points=[];autosize=1;strokeColor=none;fillColor=none;" vertex="1" parent="1">
          <mxGeometry x="870" y="30" width="40" height="30" as="geometry" />
        </mxCell>
        <mxCell id="biB-jp_Qq15eVGGiDJQu-21" value="1,1" style="text;html=1;align=center;verticalAlign=middle;resizable=0;points=[];autosize=1;strokeColor=none;fillColor=none;" vertex="1" parent="1">
          <mxGeometry x="1000" y="105" width="40" height="30" as="geometry" />
        </mxCell>
      </root>
    </mxGraphModel>
  </diagram>
</mxfile>
